<svg width="24" height="24" viewBox="0 0 24 24" fill="none" xmlns="http://www.w3.org/2000/svg">
  <circle cx="12" cy="12" r="12" fill="#F7931A"/>
  <path d="M16.66 10.09c.24-1.6-0.98-2.46-2.65-3.03l.54-2.17-1.32-.33-.53 2.12c-.35-.09-.71-.17-1.06-.25l.53-2.13-1.32-.33-.54 2.17c-.29-.07-.57-.13-.85-.2l0-.01-1.82-.45-.35 1.41s.98.22.96.24c.54.13.63.49.62.77l-.62 2.5c.04.01.08.02.13.04l-.13-.03-.87 3.5c-.07.16-.23.41-.6.32.01.02-.96-.24-.96-.24L5 15.4l1.72.43c.32.08.63.16.94.24l-.55 2.19 1.32.33.54-2.17c.36.1.71.19 1.06.27l-.54 2.16 1.32.33.55-2.18c2.24.42 3.93.25 4.64-1.77.57-1.63-.03-2.57-1.2-3.18.86-.2 1.5-.76 1.68-1.93h-.02zm-3 4.21c-.4 1.63-3.14.75-4.03.53l.72-2.88c.89.22 3.74.66 3.31 2.35zm.41-4.24c-.37 1.48-2.65.73-3.39.54l.65-2.61c.74.18 3.13.53 2.74 2.07z" fill="white"/>
</svg>
